HIERARCHY
ROOT hip
{
  OFFSET 0 0 0
  CHANNELS 6 Xposition Yposition Zposition Zrotation Yrotation Xrotation
  JOINT abdomen
  {
    OFFSET 0 20.6881 -0.73152
    CHANNELS 3 Zrotation Xrotation Yrotation
    JOINT chest
    {
      OFFSET 0 11.7043 -0.48768
      CHANNELS 3 Zrotation Xrotation Yrotation
      JOINT neck
      {
        OFFSET 0 22.1894 -2.19456
        CHANNELS 3 Zrotation Xrotation Yrotation
        JOINT head
        {
          OFFSET -0.24384 7.07133 1.2192
          CHANNELS 3 Zrotation Xrotation Yrotation
          JOINT leftEye
          {
            OFFSET 4.14528 8.04674 8.04672
            CHANNELS 3 Zrotation Xrotation Yrotation
            End Site
            {
              OFFSET 1 0 0
            }
          }
          JOINT rightEye
          {
            OFFSET -3.6576 8.04674 8.04672
            CHANNELS 3 Zrotation Xrotation Yrotation
            End Site
            {
              OFFSET 1 0 0
            }
          }
        }
      }
      JOINT rCollar
      {
        OFFSET -2.68224 19.2634 -4.8768
        CHANNELS 3 Zrotation Xrotation Yrotation
        JOINT rShldr
        {
          OFFSET -8.77824 -1.95073 1.46304
          CHANNELS 3 Zrotation Xrotation Yrotation
          JOINT rForeArm
          {
            OFFSET -28.1742 -1.7115 0.48768
            CHANNELS 3 Zrotation Xrotation Yrotation
            JOINT rHand
            {
              OFFSET -22.5879 0.773209 7.07136
              CHANNELS 3 Zrotation Xrotation Yrotation
              JOINT rThumb1
              {
                OFFSET -1.2192 -0.487915 3.41376
                CHANNELS 3 Zrotation Xrotation Yrotation
                JOINT rThumb2
                {
                  OFFSET -3.37035 -0.52449 3.41376
                  CHANNELS 3 Zrotation Xrotation Yrotation
                  End Site
                  {
                    OFFSET -1.78271 -1.18214 1.43049
                  }
                }
              }
              JOINT rIndex1
              {
                OFFSET -7.75947 0.938293 5.60832
                CHANNELS 3 Zrotation Xrotation Yrotation
                JOINT rIndex2
                {
                  OFFSET -2.54057 -0.884171 1.56538
                  CHANNELS 3 Zrotation Xrotation Yrotation
                  End Site
                  {
                    OFFSET -1.62519 -0.234802 1.16502
                  }
                }
              }
              JOINT rMid1
              {
                OFFSET -8.24714 1.18213 3.41376
                CHANNELS 3 Zrotation Xrotation Yrotation
                JOINT rMid2
                {
                  OFFSET -3.10165 -0.590103 1.0647
                  CHANNELS 3 Zrotation Xrotation Yrotation
                  End Site
                  {
                    OFFSET -2.48547 -0.328903 0.83742
                  }
                }
              }
              JOINT rRing1
              {
                OFFSET -8.82822 0.546677 1.51678
                CHANNELS 3 Zrotation Xrotation Yrotation
                JOINT rRing2
                {
                  OFFSET -2.60934 -0.819778 -0.0198488
                  CHANNELS 3 Zrotation Xrotation Yrotation
                  End Site
                  {
                    OFFSET -2.33842 -0.294052 0.168128
                  }
                }
              }
              JOINT rPinky1
              {
                OFFSET -8.27202 -0.0477905 -0.4584
                CHANNELS 3 Zrotation Xrotation Yrotation
                JOINT rPinky2
                {
                  OFFSET -1.82734 -0.647385 -0.700984
                  CHANNELS 3 Zrotation Xrotation Yrotation
                  End Site
                  {
                    OFFSET -1.69225 -0.51767 -0.607171
                  }
                }
              }
            }
          }
        }
      }
      JOINT lCollar
      {
        OFFSET 2.68224 19.2634 -4.8768
        CHANNELS 3 Zrotation Xrotation Yrotation
        JOINT lShldr
        {
          OFFSET 8.77824 -1.95073 1.46304
          CHANNELS 3 Zrotation Xrotation Yrotation
          JOINT lForeArm
          {
            OFFSET 28.1742 -1.7115 0.48768
            CHANNELS 3 Zrotation Xrotation Yrotation
            JOINT lHand
            {
              OFFSET 22.5879 0.773209 7.07136
              CHANNELS 3 Zrotation Xrotation Yrotation
              JOINT lThumb1
              {
                OFFSET 1.2192 -0.487915 3.41376
                CHANNELS 3 Zrotation Xrotation Yrotation
                JOINT lThumb2
                {
                  OFFSET 3.37035 -0.52449 3.41376
                  CHANNELS 3 Zrotation Xrotation Yrotation
                  End Site
                  {
                    OFFSET 1.78271 -1.18214 1.43049
                  }
                }
              }
              JOINT lIndex1
              {
                OFFSET 7.75947 0.938293 5.60832
                CHANNELS 3 Zrotation Xrotation Yrotation
                JOINT lIndex2
                {
                  OFFSET 2.54057 -0.884171 1.56538
                  CHANNELS 3 Zrotation Xrotation Yrotation
                  End Site
                  {
                    OFFSET 1.62519 -0.234802 1.16502
                  }
                }
              }
              JOINT lMid1
              {
                OFFSET 8.24714 1.18213 3.41376
                CHANNELS 3 Zrotation Xrotation Yrotation
                JOINT lMid2
                {
                  OFFSET 3.10165 -0.590103 1.0647
                  CHANNELS 3 Zrotation Xrotation Yrotation
                  End Site
                  {
                    OFFSET 2.48547 -0.328903 0.83742
                  }
                }
              }
              JOINT lRing1
              {
                OFFSET 8.82822 0.546677 1.51678
                CHANNELS 3 Zrotation Xrotation Yrotation
                JOINT lRing2
                {
                  OFFSET 2.60934 -0.819778 -0.0198488
                  CHANNELS 3 Zrotation Xrotation Yrotation
                  End Site
                  {
                    OFFSET 2.33842 -0.294052 0.168128
                  }
                }
              }
              JOINT lPinky1
              {
                OFFSET 8.27202 -0.0477905 -0.4584
                CHANNELS 3 Zrotation Xrotation Yrotation
                JOINT lPinky2
                {
                  OFFSET 1.82734 -0.647385 -0.700984
                  CHANNELS 3 Zrotation Xrotation Yrotation
                  End Site
                  {
                    OFFSET 1.69225 -0.51767 -0.607171
                  }
                }
              }
            }
          }
        }
      }
    }
  }
  JOINT rButtock
  {
    OFFSET -8.77824 4.35084 1.2192
    CHANNELS 3 Zrotation Xrotation Yrotation
    JOINT rThigh
    {
      OFFSET 0 -1.70687 -2.19456
      CHANNELS 3 Zrotation Xrotation Yrotation
      JOINT rShin
      {
        OFFSET 0 -36.8199 0.73152
        CHANNELS 3 Zrotation Xrotation Yrotation
        JOINT rFoot
        {
          OFFSET 0.73152 -45.1104 -5.12064
          CHANNELS 3 Zrotation Xrotation Yrotation
          End Site
          {
            OFFSET -1.1221 -3.69964 12.103
          }
        }
      }
    }
  }
  JOINT lButtock
  {
    OFFSET 8.77824 4.35084 1.2192
    CHANNELS 3 Zrotation Xrotation Yrotation
    JOINT lThigh
    {
      OFFSET 0 -1.70687 -2.19456
      CHANNELS 3 Zrotation Xrotation Yrotation
      JOINT lShin
      {
        OFFSET 0 -36.8199 0.73152
        CHANNELS 3 Zrotation Xrotation Yrotation
        JOINT lFoot
        {
          OFFSET -0.73152 -45.1104 -5.12064
          CHANNELS 3 Zrotation Xrotation Yrotation
          End Site
          {
            OFFSET 1.1221 -3.69964 12.103
          }
        }
      }
    }
  }
}
MOTION
Frames:	4
Frame Time:	0.00833333
4.83738 82.4855 56.9195 0.0 0.0 0.0 -4.35895 0.00629234 -0.117456 -1.20159 0.0324761 -0.207681 -1.28303e-15 0.0 -9.44227e-16 -3.65888e-15 3.18055e-15 -2.637e-15 -0.0 0.0 0.0 -0.0 0.0 0.0 -2.48609e-16 2.10238e-16 -2.98177e-16 -6.87117e-15 4.73356e-15 -8.74653e-15 -1.4233e-13 2.15085e-13 -1.7175e-13 -2.00084e-12 7.39926e-13 -1.93696e-12 -4.68353e-12 2.06962e-12 -4.5641e-12 -8.10723e-12 3.57176e-12 -7.87823e-12 -4.67979e-12 2.07054e-12 -4.57682e-12 7.73091 5.47488 0.417314 -4.68421e-12 2.06945e-12 -4.55773e-12 2.90554 0.965183 0.102902 -4.67581e-12 2.06985e-12 -4.5641e-12 10.2786 0.731801 0.0259123 -4.69032e-12 2.07134e-12 -4.55137e-12 2.22167 -0.733487 -0.20892 -3.47774e-16 2.11985e-16 -5.46658e-16 -1.0631e-14 4.50372e-15 -1.05356e-14 -1.88448e-13 9.83984e-14 -2.06736e-13 -1.96907e-12 8.45804e-13 -1.89243e-12 -4.70271e-12 2.04624e-12 -4.56092e-12 -8.10604e-12 3.53678e-12 -7.8679e-12 -4.70682e-12 2.04549e-12 -4.54819e-12 -7.73091 5.47488 -0.417314 -4.70275e-12 2.04559e-12 -4.56092e-12 -2.90554 0.965183 -0.102902 -4.70802e-12 2.04639e-12 -4.55535e-12 -10.2786 0.731801 -0.0259123 -4.69788e-12 2.04828e-12 -4.56728e-12 -2.22167 -0.733487 0.20892 -2.03217e-16 0.0 -3.88251e-19 -2.88804 -1.94435 0.0304137 -0.00797348 -2.07874 -0.0651004 -0.422411 4.00217 0.127138 2.03217e-16 0.0 3.88251e-19 -3.72536 -11.2507 0.483797 -0.0143134 14.7726 -0.388798 0.544813 -3.54243 0.0125115
2.57383 82.08 54.6519 -8.602 -4.0951 10.2109 -2.53164 -2.79886 0.41529 -1.43583 -2.67074 -0.142289 -3.032 4.27169 -4.17583 5.21187 -2.43087 -8.03271 -0.0 0.0 0.0 -0.0 0.0 0.0 7.66127e-14 5.07423e-14 2.01526e-14 23.2156 -0.600836 -2.73135 -3.47961 -1.45773 5.56144 0.330923 12.8217 1.64332 2.51803e-10 2.80581e-10 -8.26399e-10 4.032e-10 5.12127e-10 -1.43216e-09 2.51809e-10 2.80579e-10 -8.26416e-10 7.73091 5.47488 0.417314 2.51803e-10 2.80579e-10 -8.26397e-10 2.90554 0.965183 0.102902 2.51811e-10 2.80579e-10 -8.26401e-10 10.2786 0.731801 0.0259123 2.51799e-10 2.8058e-10 -8.26391e-10 2.22167 -0.733487 -0.20892 7.65047e-14 5.07456e-14 1.99336e-14 -23.0713 -1.14183 2.78009 3.13242 -1.2593 -5.05617 -0.13237 8.08623 -1.09601 -7.16253e-10 -4.60987e-10 -1.01344e-10 -1.23843e-09 -7.92181e-10 -1.57536e-10 -7.16258e-10 -4.60987e-10 -1.01334e-10 -7.73091 5.47488 -0.417314 -7.16252e-10 -4.60986e-10 -1.01343e-10 -2.90554 0.965183 -0.102902 -7.1626e-10 -4.60986e-10 -1.01339e-10 -10.2786 0.731801 -0.0259123 -7.16249e-10 -4.60985e-10 -1.01349e-10 -2.22167 -0.733487 0.20892 -2.03217e-16 0.0 -3.88251e-19 -1.6861 -3.3376 7.32669 0.00498868 -1.75225 0.0449837 -0.851055 1.64956 -6.3106 2.03217e-16 0.0 3.88251e-19 -3.46615 -10.331 -11.1569 -0.00795072 14.1423 -0.26978 1.51403 -9.38274 14.3268
2.58444 82.0882 54.6501 -8.5679 -4.0731 10.2169 -0.560669 -5.75096 1.00679 -1.69041 -5.53441 -0.0668258 -5.53001 8.71699 -8.67586 9.97634 -4.85722 -16.5874 -0.0 0.0 0.0 -0.0 0.0 0.0 1.63745e-13 1.04253e-13 4.23846e-14 47.7175 -1.26193 -5.63018 -6.86097 -2.95859 11.4668 -0.202823 26.3411 3.67879 5.19224e-10 6.16298e-10 -1.7639e-09 8.29019e-10 1.12287e-09 -3.05602e-09 5.19231e-10 6.16294e-10 -1.76392e-09 7.73091 5.47488 0.417314 5.19223e-10 6.16295e-10 -1.7639e-09 2.90554 0.965183 0.102902 5.19232e-10 6.16294e-10 -1.76391e-09 10.2786 0.731801 0.0259123 5.19223e-10 6.16295e-10 -1.7639e-09 2.22167 -0.733487 -0.20892 1.63627e-13 1.04258e-13 4.21983e-14 -47.3236 -2.29773 5.7189 6.20557 -2.55927 -10.4129 0.077258 16.6122 -2.32794 -1.51619e-09 -9.93272e-10 -2.45174e-10 -2.62244e-09 -1.70766e-09 -3.86205e-10 -1.5162e-09 -9.93271e-10 -2.45167e-10 -7.73091 5.47488 -0.417314 -1.51619e-09 -9.9327e-10 -2.45172e-10 -2.90554 0.965183 -0.102902 -1.5162e-09 -9.93272e-10 -2.4517e-10 -10.2786 0.731801 -0.0259123 -1.51619e-09 -9.9327e-10 -2.45178e-10 -2.22167 -0.733487 0.20892 -2.03217e-16 0.0 -3.88251e-19 -0.0451433 -4.69973 15.0728 0.0173815 -1.40548 0.161489 -1.87482 -0.794856 -13.1148 2.03217e-16 0.0 3.88251e-19 -2.79533 -8.96903 -23.3781 0.00176843 13.48 -0.144625 5.65219 -14.0927 30.0495
2.5892 82.0883 54.6522 -8.5516 -4.0542 10.2042 1.28084 -8.40656 1.49536 -1.88577 -8.07719 -0.0111516 -7.20607 12.5398 -12.803 13.6461 -6.72096 -24.2536 -0.0 0.0 0.0 -0.0 0.0 0.0 2.30335e-13 1.51806e-13 6.10541e-14 69.4757 -1.78613 -8.19762 -9.60125 -4.20868 16.7253 -1.72376 38.3204 6.13153 7.64777e-10 8.37603e-10 -2.47007e-09 1.22582e-09 1.52924e-09 -4.28073e-09 7.64786e-10 8.37597e-10 -2.47009e-09 7.73091 5.47488 0.417314 7.64777e-10 8.37599e-10 -2.47007e-09 2.90554 0.965183 0.102902 7.64786e-10 8.37598e-10 -2.47008e-09 10.2786 0.731801 0.0259123 7.64779e-10 8.37598e-10 -2.47007e-09 2.22167 -0.733487 -0.20892 2.3021e-13 1.51813e-13 6.08941e-14 -68.8824 -3.39324 8.35335 8.73799 -3.66039 -15.1966 0.60653 24.2214 -3.56995 -2.13935e-09 -1.38705e-09 -2.94909e-10 -3.69907e-09 -2.38362e-09 -4.56874e-10 -2.13936e-09 -1.38705e-09 -2.94905e-10 -7.73091 5.47488 -0.417314 -2.13935e-09 -1.38705e-09 -2.94907e-10 -2.90554 0.965183 -0.102902 -2.13936e-09 -1.38705e-09 -2.94906e-10 -10.2786 0.731801 -0.0259123 -2.13935e-09 -1.38705e-09 -2.94913e-10 -2.22167 -0.733487 0.20892 -2.03217e-16 0.0 -3.88251e-19 1.75406 -5.75764 21.9985 0.0271487 -1.09927 0.265052 -3.26798 -2.85749 -19.2024 2.03217e-16 0.0 3.88251e-19 -1.76866 -7.52471 -34.2049 0.0128303 12.8817 -0.0337673 11.4956 -16.0319 44.5205
